<svg width="1440" height="810" viewBox="0 0 1440 810" fill="none" xmlns="http://www.w3.org/2000/svg">
<rect width="1440" height="810" fill="white"/>
<rect x="167.5" y="56.5" width="1221" height="116" stroke="#020212"/>
<path d="M205.484 126V102.24H210.056V126H205.484ZM207.572 116.712V112.932H221V116.712H207.572ZM207.572 106.164V102.24H222.44V106.164H207.572ZM225.659 126V107.208H230.195V126H225.659ZM227.927 104.508C226.991 104.508 226.283 104.316 225.803 103.932C225.323 103.548 225.083 102.984 225.083 102.24C225.083 101.496 225.323 100.932 225.803 100.548C226.283 100.14 226.991 99.936 227.927 99.936C228.863 99.936 229.571 100.14 230.051 100.548C230.531 100.932 230.771 101.496 230.771 102.24C230.771 102.984 230.519 103.548 230.015 103.932C229.535 104.316 228.839 104.508 227.927 104.508ZM234.729 126V114.948V107.208H238.581L238.401 113.616H238.977C239.241 112.056 239.649 110.772 240.201 109.764C240.777 108.732 241.509 107.964 242.397 107.46C243.285 106.956 244.341 106.704 245.565 106.704C247.701 106.704 249.309 107.46 250.389 108.972C251.493 110.46 252.045 112.752 252.045 115.848V126H247.473V116.316C247.473 114.348 247.173 112.908 246.573 111.996C245.997 111.06 245.133 110.592 243.981 110.592C242.973 110.592 242.121 110.916 241.425 111.564C240.729 112.212 240.201 113.1 239.841 114.228C239.481 115.356 239.289 116.664 239.265 118.152V126H234.729ZM260.78 126.468C259.748 126.468 258.824 126.276 258.008 125.892C257.192 125.508 256.532 124.932 256.028 124.164C255.548 123.372 255.308 122.376 255.308 121.176C255.308 120.168 255.5 119.316 255.884 118.62C256.292 117.924 256.868 117.348 257.612 116.892C258.356 116.436 259.256 116.076 260.312 115.812C261.368 115.524 262.568 115.284 263.912 115.092C264.848 114.924 265.592 114.78 266.144 114.66C266.696 114.54 267.092 114.36 267.332 114.12C267.572 113.88 267.692 113.532 267.692 113.076C267.692 112.26 267.416 111.6 266.864 111.096C266.312 110.568 265.484 110.304 264.38 110.304C263.708 110.304 263.048 110.424 262.4 110.664C261.776 110.904 261.236 111.288 260.78 111.816C260.348 112.32 260.072 113.004 259.952 113.868L255.884 112.86C256.076 111.78 256.424 110.856 256.928 110.088C257.432 109.32 258.056 108.684 258.8 108.18C259.568 107.676 260.432 107.304 261.392 107.064C262.352 106.824 263.384 106.704 264.488 106.704C266.216 106.704 267.644 107.004 268.772 107.604C269.9 108.18 270.74 109.068 271.292 110.268C271.868 111.444 272.156 112.956 272.156 114.804V118.296C272.18 119.112 272.204 119.964 272.228 120.852C272.252 121.716 272.288 122.58 272.336 123.444C272.384 124.308 272.432 125.16 272.48 126H268.412C268.364 125.256 268.316 124.476 268.268 123.66C268.244 122.82 268.22 121.968 268.196 121.104H267.692C267.404 122.088 266.948 122.988 266.324 123.804C265.7 124.62 264.92 125.268 263.984 125.748C263.048 126.228 261.98 126.468 260.78 126.468ZM262.544 123.084C263.024 123.084 263.528 123 264.056 122.832C264.584 122.64 265.088 122.364 265.568 122.004C266.048 121.62 266.48 121.152 266.864 120.6C267.248 120.024 267.548 119.352 267.764 118.584L267.728 115.992L268.628 116.064C268.268 116.424 267.8 116.7 267.224 116.892C266.648 117.06 266.024 117.204 265.352 117.324C264.68 117.42 264.008 117.528 263.336 117.648C262.688 117.768 262.088 117.936 261.536 118.152C261.008 118.368 260.576 118.668 260.24 119.052C259.928 119.412 259.772 119.916 259.772 120.564C259.772 121.356 260.024 121.98 260.528 122.436C261.056 122.868 261.728 123.084 262.544 123.084ZM276.495 126V114.948V107.208H280.347L280.167 113.616H280.743C281.007 112.056 281.415 110.772 281.967 109.764C282.543 108.732 283.275 107.964 284.163 107.46C285.051 106.956 286.107 106.704 287.331 106.704C289.467 106.704 291.075 107.46 292.155 108.972C293.259 110.46 293.811 112.752 293.811 115.848V126H289.239V116.316C289.239 114.348 288.939 112.908 288.339 111.996C287.763 111.06 286.899 110.592 285.747 110.592C284.739 110.592 283.887 110.916 283.191 111.564C282.495 112.212 281.967 113.1 281.607 114.228C281.247 115.356 281.055 116.664 281.031 118.152V126H276.495ZM306.577 126.468C304.969 126.468 303.565 126.228 302.365 125.748C301.189 125.268 300.217 124.584 299.449 123.696C298.681 122.808 298.105 121.788 297.721 120.636C297.337 119.46 297.145 118.176 297.145 116.784C297.145 115.368 297.337 114.048 297.721 112.824C298.129 111.6 298.717 110.532 299.485 109.62C300.253 108.684 301.213 107.964 302.365 107.46C303.541 106.956 304.885 106.704 306.397 106.704C308.005 106.704 309.373 106.98 310.501 107.532C311.629 108.084 312.517 108.84 313.165 109.8C313.837 110.76 314.245 111.864 314.389 113.112L310.177 114.192C310.153 113.4 309.973 112.716 309.637 112.14C309.325 111.564 308.881 111.12 308.305 110.808C307.729 110.496 307.045 110.34 306.253 110.34C305.533 110.34 304.897 110.484 304.345 110.772C303.793 111.036 303.325 111.444 302.941 111.996C302.557 112.548 302.257 113.208 302.041 113.976C301.825 114.744 301.717 115.632 301.717 116.64C301.717 117.984 301.897 119.136 302.257 120.096C302.641 121.032 303.193 121.752 303.913 122.256C304.657 122.736 305.569 122.976 306.649 122.976C307.609 122.976 308.389 122.784 308.989 122.4C309.613 122.016 310.069 121.512 310.357 120.888C310.645 120.24 310.813 119.556 310.861 118.836L314.965 119.556C314.893 120.564 314.665 121.488 314.281 122.328C313.897 123.168 313.357 123.9 312.661 124.524C311.965 125.148 311.113 125.628 310.105 125.964C309.097 126.3 307.921 126.468 306.577 126.468ZM317.909 126V107.208H322.445V126H317.909ZM320.177 104.508C319.241 104.508 318.533 104.316 318.053 103.932C317.573 103.548 317.333 102.984 317.333 102.24C317.333 101.496 317.573 100.932 318.053 100.548C318.533 100.14 319.241 99.936 320.177 99.936C321.113 99.936 321.821 100.14 322.301 100.548C322.781 100.932 323.021 101.496 323.021 102.24C323.021 102.984 322.769 103.548 322.265 103.932C321.785 104.316 321.089 104.508 320.177 104.508ZM331.479 126.468C330.447 126.468 329.523 126.276 328.707 125.892C327.891 125.508 327.231 124.932 326.727 124.164C326.247 123.372 326.007 122.376 326.007 121.176C326.007 120.168 326.199 119.316 326.583 118.62C326.991 117.924 327.567 117.348 328.311 116.892C329.055 116.436 329.955 116.076 331.011 115.812C332.067 115.524 333.267 115.284 334.611 115.092C335.547 114.924 336.291 114.78 336.843 114.66C337.395 114.54 337.791 114.36 338.031 114.12C338.271 113.88 338.391 113.532 338.391 113.076C338.391 112.26 338.115 111.6 337.563 111.096C337.011 110.568 336.183 110.304 335.079 110.304C334.407 110.304 333.747 110.424 333.099 110.664C332.475 110.904 331.935 111.288 331.479 111.816C331.047 112.32 330.771 113.004 330.651 113.868L326.583 112.86C326.775 111.78 327.123 110.856 327.627 110.088C328.131 109.32 328.755 108.684 329.499 108.18C330.267 107.676 331.131 107.304 332.091 107.064C333.051 106.824 334.083 106.704 335.187 106.704C336.915 106.704 338.343 107.004 339.471 107.604C340.599 108.18 341.439 109.068 341.991 110.268C342.567 111.444 342.855 112.956 342.855 114.804V118.296C342.879 119.112 342.903 119.964 342.927 120.852C342.951 121.716 342.987 122.58 343.035 123.444C343.083 124.308 343.131 125.16 343.179 126H339.111C339.063 125.256 339.015 124.476 338.967 123.66C338.943 122.82 338.919 121.968 338.895 121.104H338.391C338.103 122.088 337.647 122.988 337.023 123.804C336.399 124.62 335.619 125.268 334.683 125.748C333.747 126.228 332.679 126.468 331.479 126.468ZM333.243 123.084C333.723 123.084 334.227 123 334.755 122.832C335.283 122.64 335.787 122.364 336.267 122.004C336.747 121.62 337.179 121.152 337.563 120.6C337.947 120.024 338.247 119.352 338.463 118.584L338.427 115.992L339.327 116.064C338.967 116.424 338.499 116.7 337.923 116.892C337.347 117.06 336.723 117.204 336.051 117.324C335.379 117.42 334.707 117.528 334.035 117.648C333.387 117.768 332.787 117.936 332.235 118.152C331.707 118.368 331.275 118.668 330.939 119.052C330.627 119.412 330.471 119.916 330.471 120.564C330.471 121.356 330.723 121.98 331.227 122.436C331.755 122.868 332.427 123.084 333.243 123.084ZM347.194 126V100.62H351.694V126H347.194ZM367.766 119.016V115.344H373.202C375.098 115.344 376.514 114.972 377.45 114.228C378.386 113.484 378.854 112.248 378.854 110.52C378.854 108.984 378.422 107.832 377.558 107.064C376.694 106.272 375.35 105.876 373.526 105.876H367.766V102.24H373.706C375.194 102.24 376.538 102.42 377.738 102.78C378.938 103.116 379.97 103.632 380.834 104.328C381.698 105.024 382.358 105.9 382.814 106.956C383.27 108.012 383.498 109.236 383.498 110.628C383.498 112.452 383.078 113.988 382.238 115.236C381.422 116.46 380.21 117.396 378.602 118.044C377.018 118.692 375.026 119.016 372.626 119.016H367.766ZM364.742 126V102.24H369.314V126H364.742ZM386.745 126V116.532V107.208H390.633L390.489 114.084H391.065C391.257 112.404 391.569 111.036 392.001 109.98C392.457 108.9 393.081 108.096 393.873 107.568C394.665 107.016 395.613 106.74 396.717 106.74C397.005 106.74 397.305 106.764 397.617 106.812C397.929 106.86 398.265 106.944 398.625 107.064L398.409 111.924C398.025 111.756 397.617 111.636 397.185 111.564C396.777 111.468 396.405 111.42 396.069 111.42C395.157 111.42 394.365 111.672 393.693 112.176C393.045 112.68 392.517 113.412 392.109 114.372C391.701 115.308 391.425 116.424 391.281 117.72V126H386.745ZM409.619 126.468C407.771 126.468 406.139 126.096 404.723 125.352C403.331 124.608 402.227 123.504 401.411 122.04C400.619 120.552 400.223 118.728 400.223 116.568C400.223 114.336 400.631 112.5 401.447 111.06C402.287 109.596 403.403 108.504 404.795 107.784C406.211 107.064 407.807 106.704 409.583 106.704C411.407 106.704 413.015 107.076 414.407 107.82C415.823 108.564 416.927 109.668 417.719 111.132C418.535 112.596 418.943 114.432 418.943 116.64C418.943 118.848 418.535 120.684 417.719 122.148C416.903 123.612 415.787 124.704 414.371 125.424C412.955 126.12 411.371 126.468 409.619 126.468ZM409.727 123.012C410.711 123.012 411.551 122.772 412.247 122.292C412.943 121.812 413.471 121.116 413.831 120.204C414.191 119.268 414.371 118.152 414.371 116.856C414.371 115.488 414.179 114.324 413.795 113.364C413.411 112.38 412.859 111.636 412.139 111.132C411.419 110.604 410.531 110.34 409.475 110.34C408.515 110.34 407.675 110.58 406.955 111.06C406.259 111.516 405.731 112.212 405.371 113.148C405.011 114.06 404.831 115.176 404.831 116.496C404.831 118.584 405.263 120.192 406.127 121.32C406.991 122.448 408.191 123.012 409.727 123.012ZM421.096 132.66C420.856 132.66 420.604 132.636 420.34 132.588C420.076 132.564 419.8 132.516 419.512 132.444L419.152 128.484C420.4 128.628 421.288 128.52 421.816 128.16C422.368 127.824 422.644 127.056 422.644 125.856V107.208H427.18V125.82C427.18 126.996 427.048 128.016 426.784 128.88C426.52 129.744 426.124 130.452 425.596 131.004C425.092 131.556 424.456 131.964 423.688 132.228C422.944 132.516 422.08 132.66 421.096 132.66ZM424.912 104.508C423.976 104.508 423.268 104.316 422.788 103.932C422.308 103.548 422.068 102.984 422.068 102.24C422.068 101.496 422.308 100.932 422.788 100.548C423.268 100.14 423.976 99.936 424.912 99.936C425.848 99.936 426.556 100.14 427.036 100.548C427.516 100.932 427.756 101.496 427.756 102.24C427.756 102.984 427.504 103.548 427 103.932C426.52 104.316 425.824 104.508 424.912 104.508ZM440.277 126.468C438.717 126.468 437.349 126.252 436.173 125.82C434.997 125.364 434.001 124.716 433.185 123.876C432.393 123.036 431.793 122.028 431.385 120.852C430.977 119.676 430.773 118.368 430.773 116.928C430.773 115.464 430.977 114.12 431.385 112.896C431.793 111.648 432.381 110.568 433.149 109.656C433.917 108.72 434.865 108 435.993 107.496C437.145 106.968 438.453 106.704 439.917 106.704C441.333 106.704 442.581 106.944 443.661 107.424C444.741 107.88 445.641 108.564 446.361 109.476C447.081 110.388 447.609 111.504 447.945 112.824C448.281 114.12 448.389 115.608 448.269 117.288L433.689 117.432V114.804L445.389 114.66L444.057 116.136C444.177 114.84 444.069 113.772 443.733 112.932C443.421 112.068 442.929 111.42 442.257 110.988C441.609 110.556 440.841 110.34 439.953 110.34C438.969 110.34 438.117 110.604 437.397 111.132C436.677 111.636 436.125 112.368 435.741 113.328C435.357 114.288 435.165 115.452 435.165 116.82C435.165 118.908 435.609 120.468 436.497 121.5C437.409 122.532 438.669 123.048 440.277 123.048C440.997 123.048 441.609 122.952 442.113 122.76C442.617 122.568 443.025 122.316 443.337 122.004C443.673 121.668 443.925 121.296 444.093 120.888C444.285 120.48 444.417 120.06 444.489 119.628L448.521 120.348C448.377 121.236 448.113 122.052 447.729 122.796C447.345 123.54 446.817 124.188 446.145 124.74C445.473 125.292 444.645 125.712 443.661 126C442.701 126.312 441.573 126.468 440.277 126.468ZM460.632 126.468C459.024 126.468 457.62 126.228 456.42 125.748C455.244 125.268 454.272 124.584 453.504 123.696C452.736 122.808 452.16 121.788 451.776 120.636C451.392 119.46 451.2 118.176 451.2 116.784C451.2 115.368 451.392 114.048 451.776 112.824C452.184 111.6 452.772 110.532 453.54 109.62C454.308 108.684 455.268 107.964 456.42 107.46C457.596 106.956 458.94 106.704 460.452 106.704C462.06 106.704 463.428 106.98 464.556 107.532C465.684 108.084 466.572 108.84 467.22 109.8C467.892 110.76 468.3 111.864 468.444 113.112L464.232 114.192C464.208 113.4 464.028 112.716 463.692 112.14C463.38 111.564 462.936 111.12 462.36 110.808C461.784 110.496 461.1 110.34 460.308 110.34C459.588 110.34 458.952 110.484 458.4 110.772C457.848 111.036 457.38 111.444 456.996 111.996C456.612 112.548 456.312 113.208 456.096 113.976C455.88 114.744 455.772 115.632 455.772 116.64C455.772 117.984 455.952 119.136 456.312 120.096C456.696 121.032 457.248 121.752 457.968 122.256C458.712 122.736 459.624 122.976 460.704 122.976C461.664 122.976 462.444 122.784 463.044 122.4C463.668 122.016 464.124 121.512 464.412 120.888C464.7 120.24 464.868 119.556 464.916 118.836L469.02 119.556C468.948 120.564 468.72 121.488 468.336 122.328C467.952 123.168 467.412 123.9 466.716 124.524C466.02 125.148 465.168 125.628 464.16 125.964C463.152 126.3 461.976 126.468 460.632 126.468ZM478.588 126.396C476.62 126.396 475.156 125.868 474.196 124.812C473.236 123.756 472.756 122.124 472.756 119.916V110.844H470.164L470.2 107.352H471.712C472.528 107.328 473.116 107.16 473.476 106.848C473.86 106.512 474.1 105.972 474.196 105.228L474.52 102.996H477.184V107.208H482.044V110.952H477.184V119.7C477.184 120.588 477.388 121.236 477.796 121.644C478.228 122.052 478.852 122.256 479.668 122.256C480.1 122.256 480.532 122.208 480.964 122.112C481.396 121.992 481.792 121.8 482.152 121.536V125.82C481.456 126.06 480.808 126.216 480.208 126.288C479.608 126.36 479.068 126.396 478.588 126.396ZM485.534 126V107.208H490.07V126H485.534ZM487.802 104.508C486.866 104.508 486.158 104.316 485.678 103.932C485.198 103.548 484.958 102.984 484.958 102.24C484.958 101.496 485.198 100.932 485.678 100.548C486.158 100.14 486.866 99.936 487.802 99.936C488.738 99.936 489.446 100.14 489.926 100.548C490.406 100.932 490.646 101.496 490.646 102.24C490.646 102.984 490.394 103.548 489.89 103.932C489.41 104.316 488.714 104.508 487.802 104.508ZM503.064 126.468C501.216 126.468 499.584 126.096 498.168 125.352C496.776 124.608 495.672 123.504 494.856 122.04C494.064 120.552 493.668 118.728 493.668 116.568C493.668 114.336 494.076 112.5 494.892 111.06C495.732 109.596 496.848 108.504 498.24 107.784C499.656 107.064 501.252 106.704 503.028 106.704C504.852 106.704 506.46 107.076 507.852 107.82C509.268 108.564 510.372 109.668 511.164 111.132C511.98 112.596 512.388 114.432 512.388 116.64C512.388 118.848 511.98 120.684 511.164 122.148C510.348 123.612 509.232 124.704 507.816 125.424C506.4 126.12 504.816 126.468 503.064 126.468ZM503.172 123.012C504.156 123.012 504.996 122.772 505.692 122.292C506.388 121.812 506.916 121.116 507.276 120.204C507.636 119.268 507.816 118.152 507.816 116.856C507.816 115.488 507.624 114.324 507.24 113.364C506.856 112.38 506.304 111.636 505.584 111.132C504.864 110.604 503.976 110.34 502.92 110.34C501.96 110.34 501.12 110.58 500.4 111.06C499.704 111.516 499.176 112.212 498.816 113.148C498.456 114.06 498.276 115.176 498.276 116.496C498.276 118.584 498.708 120.192 499.572 121.32C500.436 122.448 501.636 123.012 503.172 123.012ZM516.014 126V114.948V107.208H519.866L519.686 113.616H520.262C520.526 112.056 520.934 110.772 521.486 109.764C522.062 108.732 522.794 107.964 523.682 107.46C524.57 106.956 525.626 106.704 526.85 106.704C528.986 106.704 530.594 107.46 531.674 108.972C532.778 110.46 533.33 112.752 533.33 115.848V126H528.758V116.316C528.758 114.348 528.458 112.908 527.858 111.996C527.282 111.06 526.418 110.592 525.266 110.592C524.258 110.592 523.406 110.916 522.71 111.564C522.014 112.212 521.486 113.1 521.126 114.228C520.766 115.356 520.574 116.664 520.55 118.152V126H516.014ZM545.017 126.468C543.745 126.468 542.593 126.336 541.561 126.072C540.553 125.832 539.677 125.472 538.933 124.992C538.213 124.488 537.637 123.876 537.205 123.156C536.797 122.412 536.569 121.572 536.521 120.636L540.193 119.556C540.241 120.276 540.469 120.9 540.877 121.428C541.285 121.956 541.861 122.364 542.605 122.652C543.349 122.94 544.237 123.084 545.269 123.084C546.445 123.084 547.357 122.904 548.005 122.544C548.677 122.16 549.013 121.62 549.013 120.924C549.013 120.396 548.833 119.988 548.473 119.7C548.113 119.388 547.597 119.136 546.925 118.944C546.277 118.752 545.473 118.56 544.513 118.368C543.553 118.152 542.617 117.924 541.705 117.684C540.817 117.42 540.001 117.084 539.257 116.676C538.513 116.244 537.913 115.692 537.457 115.02C537.025 114.348 536.809 113.496 536.809 112.464C536.809 111.288 537.121 110.28 537.745 109.44C538.369 108.576 539.257 107.904 540.409 107.424C541.585 106.944 542.989 106.704 544.621 106.704C546.133 106.704 547.465 106.932 548.617 107.388C549.793 107.82 550.729 108.468 551.425 109.332C552.145 110.172 552.565 111.216 552.685 112.464L548.869 113.436C548.845 112.716 548.641 112.116 548.257 111.636C547.897 111.132 547.393 110.76 546.745 110.52C546.121 110.256 545.389 110.124 544.549 110.124C543.469 110.124 542.617 110.316 541.993 110.7C541.369 111.084 541.057 111.612 541.057 112.284C541.057 112.788 541.249 113.208 541.633 113.544C542.017 113.856 542.557 114.108 543.253 114.3C543.973 114.492 544.789 114.684 545.701 114.876C546.637 115.068 547.549 115.284 548.437 115.524C549.325 115.764 550.129 116.088 550.849 116.496C551.593 116.904 552.181 117.444 552.613 118.116C553.045 118.788 553.261 119.64 553.261 120.672C553.261 121.896 552.925 122.952 552.253 123.84C551.605 124.704 550.669 125.364 549.445 125.82C548.221 126.252 546.745 126.468 545.017 126.468Z" fill="#020212"/>
<rect width="94" height="94" transform="translate(1284 67)" fill="#020212"/>
<path d="M1323.76 123.401C1322.56 123.401 1321.47 123.182 1320.49 122.742C1319.54 122.283 1318.72 121.633 1318.03 120.792C1317.36 119.951 1316.84 118.928 1316.48 117.723C1316.12 116.5 1315.93 115.142 1315.93 113.651C1315.93 111.491 1316.27 109.674 1316.94 108.202C1317.61 106.73 1318.53 105.612 1319.72 104.847C1320.92 104.082 1322.31 103.7 1323.88 103.7C1325.48 103.7 1326.87 104.092 1328.04 104.876C1329.2 105.659 1330.1 106.787 1330.73 108.26C1331.36 109.732 1331.68 111.5 1331.68 113.565C1331.68 115.094 1331.49 116.471 1331.1 117.695C1330.74 118.899 1330.22 119.931 1329.53 120.792C1328.84 121.633 1328.01 122.283 1327.03 122.742C1326.06 123.182 1324.97 123.401 1323.76 123.401ZM1323.85 120.448C1324.42 120.448 1324.96 120.323 1325.45 120.075C1325.95 119.807 1326.39 119.396 1326.77 118.842C1327.18 118.287 1327.48 117.589 1327.69 116.748C1327.92 115.888 1328.04 114.855 1328.04 113.651C1328.04 112.16 1327.86 110.898 1327.52 109.865C1327.18 108.814 1326.69 108.011 1326.06 107.457C1325.43 106.902 1324.68 106.625 1323.82 106.625C1323.09 106.625 1322.41 106.854 1321.76 107.313C1321.11 107.772 1320.58 108.508 1320.18 109.521C1319.78 110.535 1319.58 111.883 1319.58 113.565C1319.58 114.731 1319.68 115.754 1319.89 116.633C1320.12 117.494 1320.43 118.211 1320.81 118.784C1321.19 119.339 1321.64 119.759 1322.16 120.046C1322.67 120.314 1323.24 120.448 1323.85 120.448ZM1336.01 123C1336.01 121.681 1336.14 120.323 1336.41 118.928C1336.7 117.532 1337.12 116.146 1337.67 114.769C1338.22 113.374 1338.92 112.035 1339.76 110.755C1340.62 109.474 1341.64 108.288 1342.8 107.198V106.998L1333.11 107.084V104.044H1346.13V107.17C1345.25 108.03 1344.44 109.043 1343.69 110.21C1342.95 111.357 1342.3 112.609 1341.74 113.966C1341.19 115.324 1340.76 116.767 1340.45 118.297C1340.15 119.826 1339.99 121.394 1339.99 123H1336.01Z" fill="white"/>
<rect x="167.5" y="172.5" width="1221" height="116" stroke="#020212"/>
<path d="M210.56 242V218.24H215.132V242H210.56ZM203.684 222.128V218.24H222.008V222.128H203.684ZM230.781 242.468C229.221 242.468 227.853 242.252 226.677 241.82C225.501 241.364 224.505 240.716 223.689 239.876C222.897 239.036 222.297 238.028 221.889 236.852C221.481 235.676 221.277 234.368 221.277 232.928C221.277 231.464 221.481 230.12 221.889 228.896C222.297 227.648 222.885 226.568 223.653 225.656C224.421 224.72 225.369 224 226.497 223.496C227.649 222.968 228.957 222.704 230.421 222.704C231.837 222.704 233.085 222.944 234.165 223.424C235.245 223.88 236.145 224.564 236.865 225.476C237.585 226.388 238.113 227.504 238.449 228.824C238.785 230.12 238.893 231.608 238.773 233.288L224.193 233.432V230.804L235.893 230.66L234.561 232.136C234.681 230.84 234.573 229.772 234.237 228.932C233.925 228.068 233.433 227.42 232.761 226.988C232.113 226.556 231.345 226.34 230.457 226.34C229.473 226.34 228.621 226.604 227.901 227.132C227.181 227.636 226.629 228.368 226.245 229.328C225.861 230.288 225.669 231.452 225.669 232.82C225.669 234.908 226.113 236.468 227.001 237.5C227.913 238.532 229.173 239.048 230.781 239.048C231.501 239.048 232.113 238.952 232.617 238.76C233.121 238.568 233.529 238.316 233.841 238.004C234.177 237.668 234.429 237.296 234.597 236.888C234.789 236.48 234.921 236.06 234.993 235.628L239.025 236.348C238.881 237.236 238.617 238.052 238.233 238.796C237.849 239.54 237.321 240.188 236.649 240.74C235.977 241.292 235.149 241.712 234.165 242C233.205 242.312 232.077 242.468 230.781 242.468ZM247.069 242.468C246.037 242.468 245.113 242.276 244.297 241.892C243.481 241.508 242.821 240.932 242.317 240.164C241.837 239.372 241.597 238.376 241.597 237.176C241.597 236.168 241.789 235.316 242.173 234.62C242.581 233.924 243.157 233.348 243.901 232.892C244.645 232.436 245.545 232.076 246.601 231.812C247.657 231.524 248.857 231.284 250.201 231.092C251.137 230.924 251.881 230.78 252.433 230.66C252.985 230.54 253.381 230.36 253.621 230.12C253.861 229.88 253.981 229.532 253.981 229.076C253.981 228.26 253.705 227.6 253.153 227.096C252.601 226.568 251.773 226.304 250.669 226.304C249.997 226.304 249.337 226.424 248.689 226.664C248.065 226.904 247.525 227.288 247.069 227.816C246.637 228.32 246.361 229.004 246.241 229.868L242.173 228.86C242.365 227.78 242.713 226.856 243.217 226.088C243.721 225.32 244.345 224.684 245.089 224.18C245.857 223.676 246.721 223.304 247.681 223.064C248.641 222.824 249.673 222.704 250.777 222.704C252.505 222.704 253.933 223.004 255.061 223.604C256.189 224.18 257.029 225.068 257.581 226.268C258.157 227.444 258.445 228.956 258.445 230.804V234.296C258.469 235.112 258.493 235.964 258.517 236.852C258.541 237.716 258.577 238.58 258.625 239.444C258.673 240.308 258.721 241.16 258.769 242H254.701C254.653 241.256 254.605 240.476 254.557 239.66C254.533 238.82 254.509 237.968 254.485 237.104H253.981C253.693 238.088 253.237 238.988 252.613 239.804C251.989 240.62 251.209 241.268 250.273 241.748C249.337 242.228 248.269 242.468 247.069 242.468ZM248.833 239.084C249.313 239.084 249.817 239 250.345 238.832C250.873 238.64 251.377 238.364 251.857 238.004C252.337 237.62 252.769 237.152 253.153 236.6C253.537 236.024 253.837 235.352 254.053 234.584L254.017 231.992L254.917 232.064C254.557 232.424 254.089 232.7 253.513 232.892C252.937 233.06 252.313 233.204 251.641 233.324C250.969 233.42 250.297 233.528 249.625 233.648C248.977 233.768 248.377 233.936 247.825 234.152C247.297 234.368 246.865 234.668 246.529 235.052C246.217 235.412 246.061 235.916 246.061 236.564C246.061 237.356 246.313 237.98 246.817 238.436C247.345 238.868 248.017 239.084 248.833 239.084ZM262.784 242V230.768V223.208H266.564L266.42 229.616H266.996C267.26 228.032 267.656 226.736 268.184 225.728C268.736 224.696 269.408 223.94 270.2 223.46C270.992 222.956 271.928 222.704 273.008 222.704C274.184 222.704 275.144 222.98 275.888 223.532C276.632 224.084 277.196 224.876 277.58 225.908C277.964 226.916 278.18 228.14 278.228 229.58H278.732C279.02 228.02 279.44 226.736 279.992 225.728C280.568 224.696 281.276 223.94 282.116 223.46C282.98 222.956 283.952 222.704 285.032 222.704C286.04 222.704 286.916 222.908 287.66 223.316C288.428 223.7 289.064 224.276 289.568 225.044C290.096 225.812 290.48 226.772 290.72 227.924C290.96 229.076 291.08 230.408 291.08 231.92V242H286.544V232.46C286.544 231.164 286.424 230.096 286.184 229.256C285.968 228.392 285.632 227.756 285.176 227.348C284.744 226.916 284.168 226.7 283.448 226.7C282.608 226.7 281.876 227 281.252 227.6C280.628 228.176 280.136 229.004 279.776 230.084C279.416 231.164 279.212 232.424 279.164 233.864V242H274.7V232.604C274.7 231.26 274.58 230.156 274.34 229.292C274.124 228.428 273.776 227.78 273.296 227.348C272.84 226.916 272.264 226.7 271.568 226.7C270.728 226.7 269.996 227 269.372 227.6C268.748 228.176 268.256 229.016 267.896 230.12C267.56 231.2 267.368 232.472 267.32 233.936V242H262.784Z" fill="#020212"/>
<rect width="94" height="94" transform="translate(1284 183)" fill="#020212"/>
<path d="M1321.76 239.401C1320.56 239.401 1319.47 239.182 1318.49 238.742C1317.54 238.283 1316.72 237.633 1316.03 236.792C1315.36 235.951 1314.84 234.928 1314.48 233.723C1314.12 232.5 1313.93 231.142 1313.93 229.651C1313.93 227.491 1314.27 225.674 1314.94 224.202C1315.61 222.73 1316.53 221.612 1317.72 220.847C1318.92 220.082 1320.31 219.7 1321.88 219.7C1323.48 219.7 1324.87 220.092 1326.04 220.876C1327.2 221.659 1328.1 222.787 1328.73 224.26C1329.36 225.732 1329.68 227.5 1329.68 229.565C1329.68 231.094 1329.49 232.471 1329.1 233.695C1328.74 234.899 1328.22 235.931 1327.53 236.792C1326.84 237.633 1326.01 238.283 1325.03 238.742C1324.06 239.182 1322.97 239.401 1321.76 239.401ZM1321.85 236.448C1322.42 236.448 1322.96 236.323 1323.45 236.075C1323.95 235.807 1324.39 235.396 1324.77 234.842C1325.18 234.287 1325.48 233.589 1325.69 232.748C1325.92 231.888 1326.04 230.855 1326.04 229.651C1326.04 228.16 1325.86 226.898 1325.52 225.865C1325.18 224.814 1324.69 224.011 1324.06 223.457C1323.43 222.902 1322.68 222.625 1321.82 222.625C1321.09 222.625 1320.41 222.854 1319.76 223.313C1319.11 223.772 1318.58 224.508 1318.18 225.521C1317.78 226.535 1317.58 227.883 1317.58 229.565C1317.58 230.731 1317.68 231.754 1317.89 232.633C1318.12 233.494 1318.43 234.211 1318.81 234.784C1319.19 235.339 1319.64 235.759 1320.16 236.046C1320.67 236.314 1321.24 236.448 1321.85 236.448ZM1340.3 239.43C1338.73 239.43 1337.36 239.239 1336.17 238.857C1334.99 238.474 1334.07 237.891 1333.42 237.107C1332.77 236.323 1332.44 235.358 1332.44 234.211C1332.44 233.312 1332.63 232.538 1332.99 231.888C1333.37 231.238 1333.9 230.712 1334.57 230.311C1335.25 229.909 1336.05 229.651 1336.95 229.536V229.336L1340.3 228.762L1343.66 229.307V229.536C1344.52 229.632 1345.29 229.871 1345.98 230.253C1346.67 230.636 1347.2 231.161 1347.59 231.831C1347.97 232.5 1348.16 233.293 1348.16 234.211C1348.16 235.358 1347.83 236.323 1347.18 237.107C1346.53 237.891 1345.62 238.474 1344.43 238.857C1343.25 239.239 1341.87 239.43 1340.3 239.43ZM1340.33 236.362C1340.77 236.362 1341.23 236.323 1341.71 236.247C1342.2 236.151 1342.66 236.008 1343.08 235.817C1343.5 235.606 1343.84 235.329 1344.09 234.985C1344.35 234.641 1344.49 234.211 1344.49 233.695C1344.49 233.045 1344.3 232.509 1343.91 232.089C1343.53 231.668 1343.02 231.362 1342.37 231.171C1341.74 230.961 1341.05 230.855 1340.3 230.855C1339.56 230.855 1338.87 230.961 1338.24 231.171C1337.61 231.362 1337.1 231.668 1336.72 232.089C1336.33 232.49 1336.14 233.006 1336.14 233.637C1336.14 234.153 1336.27 234.584 1336.52 234.928C1336.78 235.272 1337.13 235.559 1337.55 235.788C1337.97 235.998 1338.42 236.151 1338.9 236.247C1339.39 236.323 1339.87 236.362 1340.33 236.362ZM1340.27 228.074C1340.88 228.074 1341.45 227.978 1341.96 227.787C1342.5 227.596 1342.93 227.299 1343.26 226.898C1343.6 226.496 1343.77 225.98 1343.77 225.349C1343.77 224.852 1343.66 224.432 1343.43 224.087C1343.22 223.743 1342.93 223.476 1342.57 223.284C1342.22 223.074 1341.84 222.921 1341.42 222.826C1341.02 222.73 1340.63 222.682 1340.24 222.682C1339.71 222.682 1339.17 222.768 1338.64 222.94C1338.12 223.093 1337.69 223.361 1337.35 223.743C1337 224.126 1336.83 224.642 1336.83 225.292C1336.83 225.942 1336.98 226.477 1337.29 226.898C1337.62 227.299 1338.05 227.596 1338.58 227.787C1339.12 227.978 1339.68 228.074 1340.27 228.074ZM1340.3 230.339L1336.95 229.594V229.221C1336.14 229.068 1335.45 228.81 1334.85 228.447C1334.28 228.083 1333.84 227.605 1333.53 227.013C1333.23 226.42 1333.07 225.722 1333.07 224.919C1333.07 223.734 1333.38 222.749 1333.99 221.965C1334.62 221.181 1335.47 220.598 1336.54 220.216C1337.62 219.834 1338.87 219.642 1340.3 219.642C1341.77 219.642 1343.05 219.853 1344.12 220.273C1345.19 220.675 1346.01 221.267 1346.58 222.051C1347.17 222.835 1347.47 223.801 1347.47 224.948C1347.47 226.076 1347.16 227.013 1346.52 227.758C1345.91 228.485 1344.96 228.972 1343.66 229.221V229.565L1340.3 230.339Z" fill="white"/>
<rect x="167.5" y="288.5" width="1221" height="116" stroke="#020212"/>
<path d="M210.56 358V334.24H215.132V358H210.56ZM203.684 338.128V334.24H222.008V338.128H203.684ZM224.956 358V347.02V332.62H229.528V338.236C229.528 338.716 229.504 339.256 229.456 339.856C229.432 340.456 229.372 341.08 229.276 341.728C229.204 342.376 229.12 343.036 229.024 343.708C228.952 344.356 228.868 344.98 228.772 345.58H229.384C229.696 344.068 230.116 342.808 230.644 341.8C231.196 340.768 231.892 340 232.732 339.496C233.596 338.968 234.652 338.704 235.9 338.704C238.036 338.704 239.632 339.46 240.688 340.972C241.744 342.484 242.272 344.764 242.272 347.812V358H237.7V348.352C237.7 346.36 237.412 344.908 236.836 343.996C236.26 343.06 235.384 342.592 234.208 342.592C233.224 342.592 232.384 342.904 231.688 343.528C231.016 344.152 230.488 345.016 230.104 346.12C229.744 347.224 229.54 348.52 229.492 350.008V358H224.956ZM255.074 358.468C253.514 358.468 252.146 358.252 250.97 357.82C249.794 357.364 248.798 356.716 247.982 355.876C247.19 355.036 246.59 354.028 246.182 352.852C245.774 351.676 245.57 350.368 245.57 348.928C245.57 347.464 245.774 346.12 246.182 344.896C246.59 343.648 247.178 342.568 247.946 341.656C248.714 340.72 249.662 340 250.79 339.496C251.942 338.968 253.25 338.704 254.714 338.704C256.13 338.704 257.378 338.944 258.458 339.424C259.538 339.88 260.438 340.564 261.158 341.476C261.878 342.388 262.406 343.504 262.742 344.824C263.078 346.12 263.186 347.608 263.066 349.288L248.486 349.432V346.804L260.186 346.66L258.854 348.136C258.974 346.84 258.866 345.772 258.53 344.932C258.218 344.068 257.726 343.42 257.054 342.988C256.406 342.556 255.638 342.34 254.75 342.34C253.766 342.34 252.914 342.604 252.194 343.132C251.474 343.636 250.922 344.368 250.538 345.328C250.154 346.288 249.962 347.452 249.962 348.82C249.962 350.908 250.406 352.468 251.294 353.5C252.206 354.532 253.466 355.048 255.074 355.048C255.794 355.048 256.406 354.952 256.91 354.76C257.414 354.568 257.822 354.316 258.134 354.004C258.47 353.668 258.722 353.296 258.89 352.888C259.082 352.48 259.214 352.06 259.286 351.628L263.318 352.348C263.174 353.236 262.91 354.052 262.526 354.796C262.142 355.54 261.614 356.188 260.942 356.74C260.27 357.292 259.442 357.712 258.458 358C257.498 358.312 256.37 358.468 255.074 358.468ZM273.468 358L281.64 334.24H288.156L296.328 358H291.396L285.096 337.912H284.7L278.4 358H273.468ZM277.788 353.14V349.9H292.62V353.14H277.788ZM306.517 358.468C305.245 358.468 304.093 358.336 303.061 358.072C302.053 357.832 301.177 357.472 300.433 356.992C299.713 356.488 299.137 355.876 298.705 355.156C298.297 354.412 298.069 353.572 298.021 352.636L301.693 351.556C301.741 352.276 301.969 352.9 302.377 353.428C302.785 353.956 303.361 354.364 304.105 354.652C304.849 354.94 305.737 355.084 306.769 355.084C307.945 355.084 308.857 354.904 309.505 354.544C310.177 354.16 310.513 353.62 310.513 352.924C310.513 352.396 310.333 351.988 309.973 351.7C309.613 351.388 309.097 351.136 308.425 350.944C307.777 350.752 306.973 350.56 306.013 350.368C305.053 350.152 304.117 349.924 303.205 349.684C302.317 349.42 301.501 349.084 300.757 348.676C300.013 348.244 299.413 347.692 298.957 347.02C298.525 346.348 298.309 345.496 298.309 344.464C298.309 343.288 298.621 342.28 299.245 341.44C299.869 340.576 300.757 339.904 301.909 339.424C303.085 338.944 304.489 338.704 306.121 338.704C307.633 338.704 308.965 338.932 310.117 339.388C311.293 339.82 312.229 340.468 312.925 341.332C313.645 342.172 314.065 343.216 314.185 344.464L310.369 345.436C310.345 344.716 310.141 344.116 309.757 343.636C309.397 343.132 308.893 342.76 308.245 342.52C307.621 342.256 306.889 342.124 306.049 342.124C304.969 342.124 304.117 342.316 303.493 342.7C302.869 343.084 302.557 343.612 302.557 344.284C302.557 344.788 302.749 345.208 303.133 345.544C303.517 345.856 304.057 346.108 304.753 346.3C305.473 346.492 306.289 346.684 307.201 346.876C308.137 347.068 309.049 347.284 309.937 347.524C310.825 347.764 311.629 348.088 312.349 348.496C313.093 348.904 313.681 349.444 314.113 350.116C314.545 350.788 314.761 351.64 314.761 352.672C314.761 353.896 314.425 354.952 313.753 355.84C313.105 356.704 312.169 357.364 310.945 357.82C309.721 358.252 308.245 358.468 306.517 358.468ZM318.19 358V332.62H322.654V346.732C323.518 346.252 324.322 345.712 325.066 345.112C325.81 344.512 326.482 343.876 327.082 343.204C327.706 342.532 328.234 341.848 328.666 341.152C329.122 340.456 329.482 339.796 329.746 339.172H334.966C334.606 340.084 334.126 340.996 333.526 341.908C332.95 342.82 332.254 343.672 331.438 344.464C330.622 345.232 329.71 345.904 328.702 346.48C327.694 347.056 326.602 347.464 325.426 347.704V348.172C326.914 347.98 328.15 348.04 329.134 348.352C330.142 348.664 330.97 349.156 331.618 349.828C332.29 350.5 332.842 351.28 333.274 352.168C333.706 353.056 334.09 353.968 334.426 354.904L335.362 358H330.394L329.854 355.912C329.47 354.784 329.062 353.788 328.63 352.924C328.198 352.06 327.622 351.388 326.902 350.908C326.182 350.404 325.222 350.152 324.022 350.152H322.654V358H318.19Z" fill="#020212"/>
<rect width="94" height="94" transform="translate(1284 299)" fill="#020212"/>
<path d="M1321.76 355.401C1320.56 355.401 1319.47 355.182 1318.49 354.742C1317.54 354.283 1316.72 353.633 1316.03 352.792C1315.36 351.951 1314.84 350.928 1314.48 349.723C1314.12 348.5 1313.93 347.142 1313.93 345.651C1313.93 343.491 1314.27 341.674 1314.94 340.202C1315.61 338.73 1316.53 337.612 1317.72 336.847C1318.92 336.082 1320.31 335.7 1321.88 335.7C1323.48 335.7 1324.87 336.092 1326.04 336.876C1327.2 337.659 1328.1 338.787 1328.73 340.26C1329.36 341.732 1329.68 343.5 1329.68 345.565C1329.68 347.094 1329.49 348.471 1329.1 349.695C1328.74 350.899 1328.22 351.931 1327.53 352.792C1326.84 353.633 1326.01 354.283 1325.03 354.742C1324.06 355.182 1322.97 355.401 1321.76 355.401ZM1321.85 352.448C1322.42 352.448 1322.96 352.323 1323.45 352.075C1323.95 351.807 1324.39 351.396 1324.77 350.842C1325.18 350.287 1325.48 349.589 1325.69 348.748C1325.92 347.888 1326.04 346.855 1326.04 345.651C1326.04 344.16 1325.86 342.898 1325.52 341.865C1325.18 340.814 1324.69 340.011 1324.06 339.457C1323.43 338.902 1322.68 338.625 1321.82 338.625C1321.09 338.625 1320.41 338.854 1319.76 339.313C1319.11 339.772 1318.58 340.508 1318.18 341.521C1317.78 342.535 1317.58 343.883 1317.58 345.565C1317.58 346.731 1317.68 347.754 1317.89 348.633C1318.12 349.494 1318.43 350.211 1318.81 350.784C1319.19 351.339 1319.64 351.759 1320.16 352.046C1320.67 352.314 1321.24 352.448 1321.85 352.448ZM1339.73 355.43C1338.75 355.43 1337.86 355.315 1337.06 355.086C1336.26 354.876 1335.55 354.551 1334.94 354.111C1334.32 353.671 1333.83 353.126 1333.45 352.476C1333.08 351.826 1332.84 351.071 1332.73 350.211L1336.11 349.408C1336.23 350 1336.41 350.488 1336.66 350.87C1336.93 351.253 1337.22 351.549 1337.55 351.759C1337.89 351.97 1338.25 352.123 1338.64 352.218C1339.02 352.295 1339.4 352.333 1339.78 352.333C1340.62 352.333 1341.34 352.161 1341.93 351.817C1342.55 351.473 1343.03 350.995 1343.4 350.383C1343.76 349.771 1344.03 349.064 1344.2 348.261C1344.37 347.458 1344.46 346.597 1344.46 345.68C1344.46 345.278 1344.44 344.867 1344.4 344.447C1344.36 344.026 1344.31 343.605 1344.26 343.185C1344.2 342.745 1344.13 342.334 1344.06 341.952H1343.77C1343.83 343.022 1343.7 343.93 1343.4 344.676C1343.09 345.402 1342.66 345.995 1342.11 346.454C1341.57 346.913 1340.97 347.247 1340.3 347.458C1339.63 347.668 1338.96 347.773 1338.29 347.773C1337.28 347.773 1336.33 347.544 1335.45 347.085C1334.59 346.626 1333.89 345.966 1333.36 345.106C1332.82 344.246 1332.56 343.194 1332.56 341.952C1332.56 341.168 1332.68 340.403 1332.93 339.657C1333.18 338.912 1333.58 338.233 1334.13 337.621C1334.69 337.009 1335.41 336.531 1336.28 336.187C1337.18 335.824 1338.26 335.642 1339.53 335.642C1341.34 335.642 1342.88 336.034 1344.14 336.818C1345.4 337.602 1346.36 338.749 1347.01 340.26C1347.68 341.77 1348.01 343.596 1348.01 345.737C1348.01 347.84 1347.7 349.618 1347.07 351.071C1346.44 352.505 1345.5 353.595 1344.26 354.34C1343.03 355.067 1341.52 355.43 1339.73 355.43ZM1339.47 345.163C1340.16 345.163 1340.76 345.011 1341.27 344.705C1341.81 344.399 1342.23 343.978 1342.54 343.443C1342.86 342.888 1343.02 342.248 1343.02 341.521C1343.02 340.776 1342.86 340.193 1342.54 339.772C1342.21 339.351 1341.8 339.055 1341.3 338.883C1340.81 338.692 1340.29 338.596 1339.75 338.596C1339.16 338.596 1338.64 338.682 1338.18 338.854C1337.74 339.026 1337.37 339.265 1337.09 339.571C1336.8 339.877 1336.58 340.231 1336.43 340.632C1336.28 341.034 1336.2 341.454 1336.2 341.894C1336.2 342.582 1336.34 343.175 1336.63 343.672C1336.93 344.15 1337.34 344.523 1337.83 344.791C1338.33 345.039 1338.88 345.163 1339.47 345.163Z" fill="white"/>
<rect x="167.5" y="405.5" width="1221" height="116" stroke="#020212"/>
<path d="M210.56 475V451.24H215.132V475H210.56ZM203.684 455.128V451.24H222.008V455.128H203.684ZM224.956 475V464.02V449.62H229.528V455.236C229.528 455.716 229.504 456.256 229.456 456.856C229.432 457.456 229.372 458.08 229.276 458.728C229.204 459.376 229.12 460.036 229.024 460.708C228.952 461.356 228.868 461.98 228.772 462.58H229.384C229.696 461.068 230.116 459.808 230.644 458.8C231.196 457.768 231.892 457 232.732 456.496C233.596 455.968 234.652 455.704 235.9 455.704C238.036 455.704 239.632 456.46 240.688 457.972C241.744 459.484 242.272 461.764 242.272 464.812V475H237.7V465.352C237.7 463.36 237.412 461.908 236.836 460.996C236.26 460.06 235.384 459.592 234.208 459.592C233.224 459.592 232.384 459.904 231.688 460.528C231.016 461.152 230.488 462.016 230.104 463.12C229.744 464.224 229.54 465.52 229.492 467.008V475H224.956ZM251.006 475.468C249.974 475.468 249.05 475.276 248.234 474.892C247.418 474.508 246.758 473.932 246.254 473.164C245.774 472.372 245.534 471.376 245.534 470.176C245.534 469.168 245.726 468.316 246.11 467.62C246.518 466.924 247.094 466.348 247.838 465.892C248.582 465.436 249.482 465.076 250.538 464.812C251.594 464.524 252.794 464.284 254.138 464.092C255.074 463.924 255.818 463.78 256.37 463.66C256.922 463.54 257.318 463.36 257.558 463.12C257.798 462.88 257.918 462.532 257.918 462.076C257.918 461.26 257.642 460.6 257.09 460.096C256.538 459.568 255.71 459.304 254.606 459.304C253.934 459.304 253.274 459.424 252.626 459.664C252.002 459.904 251.462 460.288 251.006 460.816C250.574 461.32 250.298 462.004 250.178 462.868L246.11 461.86C246.302 460.78 246.65 459.856 247.154 459.088C247.658 458.32 248.282 457.684 249.026 457.18C249.794 456.676 250.658 456.304 251.618 456.064C252.578 455.824 253.61 455.704 254.714 455.704C256.442 455.704 257.87 456.004 258.998 456.604C260.126 457.18 260.966 458.068 261.518 459.268C262.094 460.444 262.382 461.956 262.382 463.804V467.296C262.406 468.112 262.43 468.964 262.454 469.852C262.478 470.716 262.514 471.58 262.562 472.444C262.61 473.308 262.658 474.16 262.706 475H258.638C258.59 474.256 258.542 473.476 258.494 472.66C258.47 471.82 258.446 470.968 258.422 470.104H257.918C257.63 471.088 257.174 471.988 256.55 472.804C255.926 473.62 255.146 474.268 254.21 474.748C253.274 475.228 252.206 475.468 251.006 475.468ZM252.77 472.084C253.25 472.084 253.754 472 254.282 471.832C254.81 471.64 255.314 471.364 255.794 471.004C256.274 470.62 256.706 470.152 257.09 469.6C257.474 469.024 257.774 468.352 257.99 467.584L257.954 464.992L258.854 465.064C258.494 465.424 258.026 465.7 257.45 465.892C256.874 466.06 256.25 466.204 255.578 466.324C254.906 466.42 254.234 466.528 253.562 466.648C252.914 466.768 252.314 466.936 251.762 467.152C251.234 467.368 250.802 467.668 250.466 468.052C250.154 468.412 249.998 468.916 249.998 469.564C249.998 470.356 250.25 470.98 250.754 471.436C251.282 471.868 251.954 472.084 252.77 472.084ZM266.721 475V463.948V456.208H270.573L270.393 462.616H270.969C271.233 461.056 271.641 459.772 272.193 458.764C272.769 457.732 273.501 456.964 274.389 456.46C275.277 455.956 276.333 455.704 277.557 455.704C279.693 455.704 281.301 456.46 282.381 457.972C283.485 459.46 284.037 461.752 284.037 464.848V475H279.465V465.316C279.465 463.348 279.165 461.908 278.565 460.996C277.989 460.06 277.125 459.592 275.973 459.592C274.965 459.592 274.113 459.916 273.417 460.564C272.721 461.212 272.193 462.1 271.833 463.228C271.473 464.356 271.281 465.664 271.257 467.152V475H266.721ZM288.272 475V449.62H292.736V463.732C293.6 463.252 294.404 462.712 295.148 462.112C295.892 461.512 296.564 460.876 297.164 460.204C297.788 459.532 298.316 458.848 298.748 458.152C299.204 457.456 299.564 456.796 299.828 456.172H305.048C304.688 457.084 304.208 457.996 303.608 458.908C303.032 459.82 302.336 460.672 301.52 461.464C300.704 462.232 299.792 462.904 298.784 463.48C297.776 464.056 296.684 464.464 295.508 464.704V465.172C296.996 464.98 298.232 465.04 299.216 465.352C300.224 465.664 301.052 466.156 301.7 466.828C302.372 467.5 302.924 468.28 303.356 469.168C303.788 470.056 304.172 470.968 304.508 471.904L305.444 475H300.476L299.936 472.912C299.552 471.784 299.144 470.788 298.712 469.924C298.28 469.06 297.704 468.388 296.984 467.908C296.264 467.404 295.304 467.152 294.104 467.152H292.736V475H288.272ZM323.121 475V467.404L314.733 451.24H320.133L325.317 463.156H325.497L330.681 451.24H336.045L327.693 467.368V475H323.121ZM344.474 475.468C342.626 475.468 340.994 475.096 339.578 474.352C338.186 473.608 337.082 472.504 336.266 471.04C335.474 469.552 335.078 467.728 335.078 465.568C335.078 463.336 335.486 461.5 336.302 460.06C337.142 458.596 338.258 457.504 339.65 456.784C341.066 456.064 342.662 455.704 344.438 455.704C346.262 455.704 347.87 456.076 349.262 456.82C350.678 457.564 351.782 458.668 352.574 460.132C353.39 461.596 353.798 463.432 353.798 465.64C353.798 467.848 353.39 469.684 352.574 471.148C351.758 472.612 350.642 473.704 349.226 474.424C347.81 475.12 346.226 475.468 344.474 475.468ZM344.582 472.012C345.566 472.012 346.406 471.772 347.102 471.292C347.798 470.812 348.326 470.116 348.686 469.204C349.046 468.268 349.226 467.152 349.226 465.856C349.226 464.488 349.034 463.324 348.65 462.364C348.266 461.38 347.714 460.636 346.994 460.132C346.274 459.604 345.386 459.34 344.33 459.34C343.37 459.34 342.53 459.58 341.81 460.06C341.114 460.516 340.586 461.212 340.226 462.148C339.866 463.06 339.686 464.176 339.686 465.496C339.686 467.584 340.118 469.192 340.982 470.32C341.846 471.448 343.046 472.012 344.582 472.012ZM363.58 475.468C361.444 475.468 359.836 474.736 358.756 473.272C357.676 471.784 357.136 469.516 357.136 466.468V456.208H361.708V466.072C361.708 467.968 361.984 469.372 362.536 470.284C363.112 471.172 363.976 471.616 365.128 471.616C365.824 471.616 366.436 471.448 366.964 471.112C367.516 470.752 367.984 470.26 368.368 469.636C368.752 468.988 369.052 468.208 369.268 467.296C369.484 466.384 369.616 465.364 369.664 464.236V456.208H374.2V466.9V475H370.384L370.528 468.592H369.952C369.688 470.2 369.28 471.52 368.728 472.552C368.176 473.56 367.48 474.304 366.64 474.784C365.8 475.24 364.78 475.468 363.58 475.468ZM379.703 468.016L378.515 451.24H383.735L382.583 468.016H379.703ZM381.179 475.432C380.171 475.432 379.415 475.216 378.911 474.784C378.431 474.352 378.191 473.692 378.191 472.804C378.191 471.868 378.431 471.184 378.911 470.752C379.415 470.32 380.171 470.104 381.179 470.104C382.187 470.104 382.943 470.32 383.447 470.752C383.951 471.184 384.203 471.868 384.203 472.804C384.203 474.556 383.195 475.432 381.179 475.432Z" fill="#020212"/>
<rect width="94" height="94" transform="translate(1284 416)" fill="#020212"/>
<path d="M1320.56 472V458.464H1317.83V455.309C1318.69 455.309 1319.41 455.166 1319.98 454.879C1320.58 454.573 1320.96 453.971 1321.13 453.073H1324.2V472H1320.56ZM1335.53 472.401C1334.33 472.401 1333.24 472.182 1332.26 471.742C1331.31 471.283 1330.49 470.633 1329.8 469.792C1329.13 468.951 1328.61 467.928 1328.25 466.723C1327.89 465.5 1327.7 464.142 1327.7 462.651C1327.7 460.491 1328.04 458.674 1328.71 457.202C1329.38 455.73 1330.3 454.612 1331.49 453.847C1332.69 453.082 1334.08 452.7 1335.65 452.7C1337.25 452.7 1338.64 453.092 1339.81 453.876C1340.97 454.659 1341.87 455.787 1342.5 457.26C1343.13 458.732 1343.45 460.5 1343.45 462.565C1343.45 464.094 1343.26 465.471 1342.87 466.695C1342.51 467.899 1341.99 468.931 1341.3 469.792C1340.61 470.633 1339.78 471.283 1338.8 471.742C1337.83 472.182 1336.74 472.401 1335.53 472.401ZM1335.62 469.448C1336.19 469.448 1336.73 469.323 1337.22 469.075C1337.72 468.807 1338.16 468.396 1338.54 467.842C1338.95 467.287 1339.25 466.589 1339.46 465.748C1339.69 464.888 1339.81 463.855 1339.81 462.651C1339.81 461.16 1339.63 459.898 1339.29 458.865C1338.95 457.814 1338.46 457.011 1337.83 456.457C1337.2 455.902 1336.45 455.625 1335.59 455.625C1334.86 455.625 1334.18 455.854 1333.53 456.313C1332.88 456.772 1332.35 457.508 1331.95 458.521C1331.55 459.535 1331.35 460.883 1331.35 462.565C1331.35 463.731 1331.45 464.754 1331.66 465.633C1331.89 466.494 1332.2 467.211 1332.58 467.784C1332.96 468.339 1333.41 468.759 1333.93 469.046C1334.44 469.314 1335.01 469.448 1335.62 469.448Z" fill="white"/>
<path d="M105 295.23L58.8 279.27L58.8 267.23L105 251.34L105 260.93L66.08 272.97L66.08 273.6L105 285.64L105 295.23ZM95.69 286.97L89.25 286.97L89.25 258.48L95.69 258.48L95.69 286.97ZM116.41 232.758C116.41 236.864 116.083 240.131 115.43 242.558C114.823 244.938 113.937 246.664 112.77 247.738C111.603 248.811 110.25 249.348 108.71 249.348C106.657 249.348 104.977 248.531 103.67 246.898C102.363 245.218 101.477 242.744 101.01 239.478L100.24 239.478C100.24 241.998 99.9133 243.934 99.26 245.288C98.6067 246.594 97.6033 247.248 96.25 247.248C94.9433 247.248 93.8 246.618 92.82 245.358C91.84 244.098 91.1633 241.998 90.79 239.058L89.95 239.058C89.53 241.858 88.48 244.028 86.8 245.568C85.0733 247.061 82.88 247.808 80.22 247.808C77.8867 247.808 75.8333 247.178 74.06 245.918C72.24 244.658 70.84 242.838 69.86 240.458C68.8333 238.031 68.32 235.138 68.32 231.778L68.32 213.578L75.39 213.578L73.78 225.688L74.69 225.688C75.25 222.374 76.1833 220.041 77.49 218.688C78.75 217.334 80.3133 216.658 82.18 216.658C84.0467 216.658 85.7267 217.218 87.22 218.338C88.6667 219.458 89.81 221.138 90.65 223.378C91.4433 225.571 91.84 228.301 91.84 231.568C91.84 232.408 91.8167 233.248 91.77 234.088C91.6767 234.881 91.5367 235.768 91.35 236.748C91.91 238.008 92.4467 238.941 92.96 239.548C93.4733 240.108 93.94 240.388 94.36 240.388C94.6867 240.388 94.9433 240.201 95.13 239.828C95.27 239.454 95.3867 238.964 95.48 238.358C95.5267 237.751 95.55 237.121 95.55 236.468L95.55 225.828C95.55 224.941 95.62 223.774 95.76 222.328C95.8533 220.881 96.2033 219.434 96.81 217.988C97.37 216.494 98.3033 215.258 99.61 214.278C100.87 213.251 102.667 212.738 105 212.738C107.613 212.738 109.76 213.484 111.44 214.978C113.12 216.424 114.357 218.641 115.15 221.628C115.99 224.568 116.41 228.278 116.41 232.758ZM108.78 232.688C108.78 229.468 108.617 226.994 108.29 225.268C108.01 223.494 107.567 222.258 106.96 221.558C106.353 220.858 105.607 220.508 104.72 220.508C103.833 220.508 103.133 220.741 102.62 221.208C102.107 221.674 101.757 222.281 101.57 223.028C101.337 223.728 101.197 224.451 101.15 225.198C101.103 225.944 101.08 226.621 101.08 227.228L101.08 236.258C101.687 238.264 102.34 239.664 103.04 240.458C103.74 241.251 104.557 241.648 105.49 241.648C106.423 241.648 107.123 241.274 107.59 240.528C108.103 239.781 108.43 238.754 108.57 237.448C108.71 236.094 108.78 234.508 108.78 232.688ZM86.73 231.848C86.73 229.701 86.17 228.044 85.05 226.878C83.93 225.664 82.4367 225.058 80.57 225.058C78.6567 225.058 77.0933 225.688 75.88 226.948C74.6667 228.161 74.06 229.841 74.06 231.988C74.06 234.134 74.6667 235.838 75.88 237.098C77.0933 238.358 78.6333 238.988 80.5 238.988C81.7133 238.988 82.81 238.708 83.79 238.148C84.7233 237.588 85.4467 236.771 85.96 235.698C86.4733 234.624 86.73 233.341 86.73 231.848ZM105.98 192.573C105.98 195.7 105.513 198.407 104.58 200.693C103.647 202.933 102.363 204.8 100.73 206.293C99.05 207.787 97.09 208.907 94.85 209.653C92.5633 210.353 90.0667 210.703 87.36 210.703C84.6067 210.703 82.04 210.353 79.66 209.653C77.2333 208.907 75.11 207.81 73.29 206.363C71.47 204.917 70.0467 203.097 69.02 200.903C67.9933 198.71 67.48 196.143 67.48 193.203C67.48 190.403 67.97 187.953 68.95 185.853C69.8833 183.753 71.2367 182.027 73.01 180.673C74.7833 179.273 76.93 178.317 79.45 177.803C81.9233 177.243 84.7 177.103 87.78 177.383L88.13 205.173L82.95 205.173L82.6 183.613L85.61 185.573C83.23 185.34 81.2467 185.503 79.66 186.063C78.0267 186.623 76.79 187.51 75.95 188.723C75.0633 189.89 74.62 191.383 74.62 193.203C74.62 195.163 75.1333 196.82 76.16 198.173C77.1867 199.527 78.6333 200.53 80.5 201.183C82.32 201.837 84.49 202.163 87.01 202.163C91.07 202.163 94.1267 201.347 96.18 199.713C98.1867 198.033 99.19 195.63 99.19 192.503C99.19 191.057 99.0033 189.843 98.63 188.863C98.21 187.883 97.65 187.09 96.95 186.483C96.25 185.877 95.48 185.433 94.64 185.153C93.7533 184.873 92.8667 184.733 91.98 184.733L92.89 176.683C94.6167 176.73 96.2733 177.08 97.86 177.733C99.4 178.387 100.777 179.367 101.99 180.673C103.203 181.933 104.183 183.567 104.93 185.573C105.63 187.533 105.98 189.867 105.98 192.573ZM105 171.229L84.91 171.229L68.46 171.299L68.46 163.669L82.95 164.089L82.95 163.249C79.45 162.875 76.5567 162.175 74.27 161.149C71.9833 160.122 70.28 158.722 69.16 156.949C68.04 155.175 67.48 153.005 67.48 150.439C67.48 146.332 68.9033 143.275 71.75 141.269C74.5967 139.215 78.9367 138.189 84.77 138.189L105 138.189L105 147.079L85.61 147.079C82.0633 147.079 79.45 147.592 77.77 148.619C76.0433 149.645 75.18 151.255 75.18 153.449C75.18 155.315 75.81 156.925 77.07 158.279C78.33 159.585 80.1967 160.612 82.67 161.359C85.0967 162.059 88.1533 162.409 91.84 162.409L105 162.409L105 171.229ZM105.98 118.147C105.98 120.9 105.257 123.374 103.81 125.567C102.317 127.76 100.147 129.487 97.3 130.747C94.4067 132.007 90.8133 132.637 86.52 132.637C82.5067 132.637 79.0767 132.077 76.23 130.957C73.3833 129.79 71.2133 128.157 69.72 126.057C68.2267 123.91 67.48 121.39 67.48 118.497C67.48 116.117 67.97 114.087 68.95 112.407C69.93 110.727 71.4 109.374 73.36 108.347C75.2733 107.274 77.6533 106.504 80.5 106.037L80.5 105.127C78.7733 105.407 77.1167 105.664 75.53 105.897C73.9433 106.084 72.45 106.247 71.05 106.387C69.65 106.48 68.3667 106.527 67.2 106.527L56.28 106.527L56.28 97.637L89.39 97.707L105 97.637L105 105.407L93.59 105.127L93.59 105.967C96.3433 106.48 98.63 107.297 100.45 108.417C102.27 109.49 103.647 110.844 104.58 112.477C105.513 114.064 105.98 115.954 105.98 118.147ZM98.63 115.417C98.63 114.017 98.3033 112.757 97.65 111.637C96.9967 110.517 96.11 109.584 94.99 108.837C93.87 108.09 92.6333 107.53 91.28 107.157C89.9267 106.737 88.55 106.527 87.15 106.527L86.45 106.527C85.4233 106.527 84.3733 106.667 83.3 106.947C82.2267 107.18 81.2 107.554 80.22 108.067C79.1933 108.534 78.3067 109.117 77.56 109.817C76.7667 110.517 76.1367 111.334 75.67 112.267C75.2033 113.2 74.97 114.25 74.97 115.417C74.97 117.144 75.4833 118.614 76.51 119.827C77.5367 121.04 78.96 121.974 80.78 122.627C82.5533 123.234 84.6067 123.537 86.94 123.537C89.2267 123.537 91.2567 123.234 93.03 122.627C94.8033 121.974 96.18 121.04 97.16 119.827C98.14 118.614 98.63 117.144 98.63 115.417ZM105.98 81.4648C105.98 83.3781 105.63 85.1514 104.93 86.7848C104.183 88.4181 103.087 89.7248 101.64 90.7048C100.147 91.6848 98.21 92.1748 95.83 92.1748C93.73 92.1748 92.0033 91.7781 90.65 90.9848C89.25 90.1914 88.13 89.0714 87.29 87.6248C86.4033 86.1314 85.7267 84.4281 85.26 82.5148C84.7467 80.6014 84.3033 78.5481 83.93 76.3548C83.5567 74.1148 83.2533 72.4114 83.02 71.2448C82.74 70.0781 82.39 69.2848 81.97 68.8648C81.55 68.3981 80.9433 68.1648 80.15 68.1648C78.4233 68.1648 77.07 68.7714 76.09 69.9848C75.11 71.1514 74.62 72.7614 74.62 74.8148C74.62 76.0281 74.8533 77.2414 75.32 78.4548C75.74 79.6681 76.4867 80.6948 77.56 81.5348C78.5867 82.3281 80.01 82.7948 81.83 82.9348L80.5 90.8448C78.0733 90.6581 76.0433 90.0981 74.41 89.1648C72.73 88.1848 71.4 86.9248 70.42 85.3848C69.3933 83.8448 68.6467 82.1414 68.18 80.2748C67.7133 78.4081 67.48 76.4948 67.48 74.5348C67.48 71.2681 68.0633 68.5148 69.23 66.2748C70.3967 64.0348 72.1467 62.3548 74.48 61.2348C76.8133 60.0681 79.7533 59.4848 83.3 59.4848L90.02 59.4848C91.6533 59.4848 93.31 59.4848 94.99 59.4848C96.67 59.4381 98.35 59.3914 100.03 59.3448C101.71 59.2981 103.367 59.2514 105 59.2048L105 67.1148C103.273 67.1148 101.547 67.1148 99.82 67.1148C98.0467 67.1148 96.2033 67.0914 94.29 67.0448L94.29 67.7448C96.4367 68.1648 98.3967 68.9814 100.17 70.1948C101.943 71.4081 103.367 72.9714 104.44 74.8848C105.467 76.7981 105.98 78.9914 105.98 81.4648ZM99.26 78.1748C99.26 77.1014 99.05 76.0281 98.63 74.9548C98.21 73.8348 97.58 72.8081 96.74 71.8748C95.9 70.8948 94.85 70.0781 93.59 69.4248C92.2833 68.7714 90.7433 68.3281 88.97 68.0948L85.89 68.1648L85.75 66.3448C86.4033 66.9048 86.9167 67.7214 87.29 68.7948C87.6633 69.8214 87.9667 70.9881 88.2 72.2948C88.3867 73.5548 88.5967 74.8381 88.83 76.1448C89.0633 77.4514 89.39 78.6648 89.81 79.7848C90.23 80.8581 90.8133 81.7214 91.56 82.3748C92.3067 83.0281 93.31 83.3548 94.57 83.3548C96.0167 83.3548 97.16 82.8881 98 81.9548C98.84 80.9748 99.26 79.7148 99.26 78.1748Z" fill="#020212"/>
</svg>
