<svg xmlns="http://www.w3.org/2000/svg" viewBox="0 0 960 540" width="100%" height="100%">
    <rect width="100%" height="100%" fill="#fafaf9" rx="12"/>
    <text x="480" y="50" text-anchor="middle" font-family="system-ui, -apple-system, sans-serif" font-size="28" font-weight="800" fill="#292524">Projected Revenue Growth Mix</text>
    <g transform="translate(260, 80)">
        <rect x="0" y="0" width="16" height="16" rx="3" fill="#0d9488"/>
        <text x="26" y="13" font-family="system-ui, -apple-system, sans-serif" font-size="14" font-weight="600" fill="#57534e">Subscription Revenue (MRR)</text>
        <rect x="240" y="0" width="16" height="16" rx="3" fill="#d6d3d1"/>
        <text x="266" y="13" font-family="system-ui, -apple-system, sans-serif" font-size="14" font-weight="600" fill="#57534e">Digital &amp; Physical Sales</text>
    </g>
    <g font-family="system-ui, -apple-system, sans-serif" font-size="14" fill="#a8a29e" text-anchor="end">
        <line x1="100" y1="80" x2="910" y2="80" stroke="#e7e5e4" stroke-width="1.5" stroke-dasharray="6,6"/>
        <text x="85" y="85">$800k</text>
        <line x1="100" y1="175" x2="910" y2="175" stroke="#e7e5e4" stroke-width="1.5" stroke-dasharray="6,6"/>
        <text x="85" y="180">$600k</text>
        <line x1="100" y1="270" x2="910" y2="270" stroke="#e7e5e4" stroke-width="1.5" stroke-dasharray="6,6"/>
        <text x="85" y="275">$400k</text>
        <line x1="100" y1="365" x2="910" y2="365" stroke="#e7e5e4" stroke-width="1.5" stroke-dasharray="6,6"/>
        <text x="85" y="370">$200k</text>
        <line x1="100" y1="460" x2="910" y2="460" stroke="#78716c" stroke-width="2"/>
        <text x="85" y="465">$0</text>
    </g>
    <g>
        <rect x="137.5" y="459.05" width="60" height="0.95" fill="#0d9488"/>
        <rect x="137.5" y="456.675" width="60" height="2.375" fill="#d6d3d1"/>
        <text x="167.5" y="445" text-anchor="middle" font-family="system-ui, -apple-system, sans-serif" font-size="14" font-weight="bold" fill="#78716c">$7k</text>
        <rect x="272.5" y="452.875" width="60" height="7.125" fill="#0d9488"/>
        <rect x="272.5" y="447.175" width="60" height="5.7" fill="#d6d3d1"/>
        <text x="302.5" y="435" text-anchor="middle" font-family="system-ui, -apple-system, sans-serif" font-size="14" font-weight="bold" fill="#78716c">$27k</text>
        <rect x="407.5" y="443.375" width="60" height="16.625" fill="#0d9488"/>
        <rect x="407.5" y="434.825" width="60" height="8.55" fill="#d6d3d1"/>
        <text x="437.5" y="422" text-anchor="middle" font-family="system-ui, -apple-system, sans-serif" font-size="14" font-weight="bold" fill="#78716c">$53k</text>
        <rect x="542.5" y="429.125" width="60" height="30.875" fill="#0d9488"/>
        <rect x="542.5" y="417.25" width="60" height="11.875" fill="#d6d3d1"/>
        <text x="572.5" y="405" text-anchor="middle" font-family="system-ui, -apple-system, sans-serif" font-size="15" font-weight="bold" fill="#57534e">$90k</text>
        <rect x="677.5" y="341.25" width="60" height="118.75" fill="#0d9488"/>
        <rect x="677.5" y="312.75" width="60" height="28.5" fill="#d6d3d1"/>
        <text x="707.5" y="300" text-anchor="middle" font-family="system-ui, -apple-system, sans-serif" font-size="16" font-weight="bold" fill="#44403c">$310k</text>
        <rect x="812.5" y="175" width="60" height="285" fill="#0d9488"/>
        <rect x="812.5" y="118" width="60" height="57" fill="#d6d3d1"/>
        <text x="842.5" y="105" text-anchor="middle" font-family="system-ui, -apple-system, sans-serif" font-size="18" font-weight="800" fill="#0d9488">$720k</text>
    </g>
    <g font-family="system-ui, -apple-system, sans-serif" font-size="15" fill="#44403c" text-anchor="middle">
        <text x="167.5" y="490">Q1</text>
        <text x="302.5" y="490">Q2</text>
        <text x="437.5" y="490">Q3</text>
        <text x="572.5" y="490">Q4</text>
        <text x="707.5" y="490" font-weight="bold">Year 2</text>
        <text x="842.5" y="490" font-weight="bold" fill="#0d9488">Year 3</text>
    </g>
</svg>
