<svg width="1440" height="810" viewBox="0 0 1440 810" fill="none" xmlns="http://www.w3.org/2000/svg">
<rect width="1440" height="810" fill="#020212"/>
<path d="M60.72 127V74.2H68.08V127H60.72ZM63.76 105V98.68H92.56V105H63.76ZM63.76 80.6V74.2H96V80.6H63.76ZM101.402 127V85.72H108.682V127H101.402ZM105.082 80.12C103.482 80.12 102.282 79.8 101.482 79.16C100.682 78.4667 100.282 77.48 100.282 76.2C100.282 74.92 100.682 73.96 101.482 73.32C102.336 72.6267 103.536 72.28 105.082 72.28C106.629 72.28 107.802 72.6267 108.602 73.32C109.456 73.96 109.882 74.9467 109.882 76.28C109.882 77.5067 109.456 78.4667 108.602 79.16C107.802 79.8 106.629 80.12 105.082 80.12ZM116.784 127V106.2L116.704 85.72H123.424L122.304 103.96H123.184C123.61 99.5867 124.41 95.9867 125.584 93.16C126.81 90.28 128.464 88.1467 130.544 86.76C132.624 85.32 135.157 84.6 138.144 84.6C142.837 84.6 146.304 86.28 148.544 89.64C150.784 92.9467 151.904 98.0667 151.904 105V127H144.624V105.32C144.624 100.467 143.93 96.92 142.544 94.68C141.21 92.3867 139.05 91.24 136.064 91.24C133.504 91.24 131.317 92.0933 129.504 93.8C127.744 95.5067 126.41 98.0667 125.504 101.48C124.597 104.84 124.117 109.027 124.064 114.04V127H116.784ZM169.749 128.04C167.562 128.04 165.562 127.64 163.749 126.84C161.935 126.04 160.469 124.813 159.349 123.16C158.282 121.453 157.749 119.293 157.749 116.68C157.749 114.333 158.175 112.413 159.029 110.92C159.882 109.373 161.109 108.12 162.709 107.16C164.309 106.147 166.175 105.347 168.309 104.76C170.495 104.173 172.869 103.693 175.429 103.32C178.255 102.893 180.362 102.52 181.749 102.2C183.189 101.88 184.149 101.48 184.629 101C185.109 100.467 185.349 99.72 185.349 98.76C185.349 96.3067 184.522 94.3867 182.869 93C181.215 91.56 179.055 90.84 176.389 90.84C174.842 90.84 173.295 91.1333 171.749 91.72C170.202 92.3067 168.895 93.2933 167.829 94.68C166.762 96.0133 166.122 97.8 165.909 100.04L159.109 98.84C159.375 96.2267 160.042 94.0133 161.109 92.2C162.175 90.3867 163.509 88.92 165.109 87.8C166.709 86.68 168.495 85.88 170.469 85.4C172.442 84.8667 174.442 84.6 176.469 84.6C179.669 84.6 182.469 85.1867 184.869 86.36C187.269 87.5333 189.135 89.3467 190.469 91.8C191.855 94.2 192.549 97.2667 192.549 101V109.08C192.549 111 192.575 112.973 192.629 115C192.682 117.027 192.709 119.053 192.709 121.08C192.762 123.053 192.815 125.027 192.869 127H186.069C186.175 124.707 186.255 122.467 186.309 120.28C186.415 118.093 186.522 115.8 186.629 113.4H185.909C185.429 116.12 184.469 118.6 183.029 120.84C181.642 123.027 179.829 124.787 177.589 126.12C175.349 127.4 172.735 128.04 169.749 128.04ZM171.829 122.04C173.375 122.04 174.895 121.747 176.389 121.16C177.935 120.52 179.322 119.587 180.549 118.36C181.829 117.08 182.895 115.56 183.749 113.8C184.602 111.987 185.162 109.933 185.429 107.64V104.68L187.509 104.2C186.869 105.053 185.882 105.693 184.549 106.12C183.215 106.547 181.695 106.893 179.989 107.16C178.282 107.427 176.549 107.72 174.789 108.04C173.082 108.307 171.482 108.733 169.989 109.32C168.549 109.853 167.375 110.653 166.469 111.72C165.562 112.733 165.109 114.12 165.109 115.88C165.109 117.8 165.695 119.32 166.869 120.44C168.042 121.507 169.695 122.04 171.829 122.04ZM200.202 127V106.2L200.122 85.72H206.842L205.722 103.96H206.602C207.029 99.5867 207.829 95.9867 209.002 93.16C210.229 90.28 211.882 88.1467 213.962 86.76C216.042 85.32 218.576 84.6 221.562 84.6C226.256 84.6 229.722 86.28 231.962 89.64C234.202 92.9467 235.322 98.0667 235.322 105V127H228.042V105.32C228.042 100.467 227.349 96.92 225.962 94.68C224.629 92.3867 222.469 91.24 219.482 91.24C216.922 91.24 214.736 92.0933 212.922 93.8C211.162 95.5067 209.829 98.0667 208.922 101.48C208.016 104.84 207.536 109.027 207.482 114.04V127H200.202ZM261.328 128.04C258.021 128.04 255.114 127.507 252.608 126.44C250.154 125.373 248.101 123.88 246.448 121.96C244.794 120.04 243.568 117.773 242.768 115.16C241.968 112.547 241.568 109.693 241.568 106.6C241.568 103.453 241.968 100.547 242.768 97.88C243.621 95.2133 244.848 92.8933 246.448 90.92C248.101 88.8933 250.128 87.3467 252.528 86.28C254.928 85.16 257.728 84.6 260.928 84.6C264.608 84.6 267.674 85.2933 270.128 86.68C272.581 88.0667 274.421 89.9067 275.648 92.2C276.928 94.4933 277.568 97 277.568 99.72L270.848 100.76C270.848 98.68 270.421 96.92 269.568 95.48C268.714 93.9867 267.541 92.84 266.048 92.04C264.608 91.24 262.901 90.84 260.928 90.84C259.328 90.84 257.808 91.1333 256.368 91.72C254.981 92.3067 253.701 93.2133 252.528 94.44C251.408 95.6667 250.528 97.2667 249.888 99.24C249.248 101.16 248.928 103.507 248.928 106.28C248.928 109.907 249.461 112.893 250.528 115.24C251.648 117.533 253.141 119.24 255.008 120.36C256.928 121.427 259.088 121.96 261.488 121.96C263.888 121.96 265.861 121.48 267.408 120.52C268.954 119.507 270.101 118.173 270.848 116.52C271.648 114.813 272.021 112.973 271.968 111L278.848 111.8C278.848 114.2 278.448 116.413 277.648 118.44C276.901 120.413 275.754 122.12 274.208 123.56C272.714 125 270.874 126.12 268.688 126.92C266.554 127.667 264.101 128.04 261.328 128.04ZM284.481 127V85.72H291.761V127H284.481ZM288.161 80.12C286.561 80.12 285.361 79.8 284.561 79.16C283.761 78.4667 283.361 77.48 283.361 76.2C283.361 74.92 283.761 73.96 284.561 73.32C285.414 72.6267 286.614 72.28 288.161 72.28C289.707 72.28 290.881 72.6267 291.681 73.32C292.534 73.96 292.961 74.9467 292.961 76.28C292.961 77.5067 292.534 78.4667 291.681 79.16C290.881 79.8 289.707 80.12 288.161 80.12ZM310.102 128.04C307.915 128.04 305.915 127.64 304.102 126.84C302.289 126.04 300.822 124.813 299.702 123.16C298.635 121.453 298.102 119.293 298.102 116.68C298.102 114.333 298.529 112.413 299.382 110.92C300.235 109.373 301.462 108.12 303.062 107.16C304.662 106.147 306.529 105.347 308.662 104.76C310.849 104.173 313.222 103.693 315.782 103.32C318.609 102.893 320.715 102.52 322.102 102.2C323.542 101.88 324.502 101.48 324.982 101C325.462 100.467 325.702 99.72 325.702 98.76C325.702 96.3067 324.875 94.3867 323.222 93C321.569 91.56 319.409 90.84 316.742 90.84C315.195 90.84 313.649 91.1333 312.102 91.72C310.555 92.3067 309.249 93.2933 308.182 94.68C307.115 96.0133 306.475 97.8 306.262 100.04L299.462 98.84C299.729 96.2267 300.395 94.0133 301.462 92.2C302.529 90.3867 303.862 88.92 305.462 87.8C307.062 86.68 308.849 85.88 310.822 85.4C312.795 84.8667 314.795 84.6 316.822 84.6C320.022 84.6 322.822 85.1867 325.222 86.36C327.622 87.5333 329.489 89.3467 330.822 91.8C332.209 94.2 332.902 97.2667 332.902 101V109.08C332.902 111 332.929 112.973 332.982 115C333.035 117.027 333.062 119.053 333.062 121.08C333.115 123.053 333.169 125.027 333.222 127H326.422C326.529 124.707 326.609 122.467 326.662 120.28C326.769 118.093 326.875 115.8 326.982 113.4H326.262C325.782 116.12 324.822 118.6 323.382 120.84C321.995 123.027 320.182 124.787 317.942 126.12C315.702 127.4 313.089 128.04 310.102 128.04ZM312.182 122.04C313.729 122.04 315.249 121.747 316.742 121.16C318.289 120.52 319.675 119.587 320.902 118.36C322.182 117.08 323.249 115.56 324.102 113.8C324.955 111.987 325.515 109.933 325.782 107.64V104.68L327.862 104.2C327.222 105.053 326.235 105.693 324.902 106.12C323.569 106.547 322.049 106.893 320.342 107.16C318.635 107.427 316.902 107.72 315.142 108.04C313.435 108.307 311.835 108.733 310.342 109.32C308.902 109.853 307.729 110.653 306.822 111.72C305.915 112.733 305.462 114.12 305.462 115.88C305.462 117.8 306.049 119.32 307.222 120.44C308.395 121.507 310.049 122.04 312.182 122.04ZM340.556 127V72.28H347.836V127H340.556ZM64.64 189.8V183.56H77.44C82.2933 183.56 85.9467 182.653 88.4 180.84C90.9067 178.973 92.16 175.987 92.16 171.88C92.16 168.04 91.0133 165.187 88.72 163.32C86.4267 161.4 82.9333 160.44 78.24 160.44H64.64V154.2H78.96C82 154.2 84.7733 154.573 87.28 155.32C89.84 156.067 92.0533 157.187 93.92 158.68C95.7867 160.173 97.2 162.04 98.16 164.28C99.1733 166.52 99.68 169.133 99.68 172.12C99.68 175.853 98.8267 179.053 97.12 181.72C95.4133 184.387 92.8533 186.413 89.44 187.8C86.0267 189.133 81.76 189.8 76.64 189.8H64.64ZM60.72 207V154.2H68.08V207H60.72ZM105.543 207V186.84L105.463 165.72H112.183L111.143 183.96H111.943C112.316 179.587 113.01 175.987 114.023 173.16C115.036 170.333 116.37 168.227 118.023 166.84C119.73 165.453 121.676 164.76 123.863 164.76C124.61 164.76 125.383 164.84 126.183 165C127.036 165.16 127.89 165.427 128.743 165.8L128.263 173.48C127.41 173.107 126.556 172.84 125.703 172.68C124.903 172.52 124.13 172.44 123.383 172.44C121.25 172.44 119.41 173.213 117.863 174.76C116.37 176.307 115.17 178.547 114.263 181.48C113.41 184.413 112.93 187.933 112.823 192.04V207H105.543ZM150.109 208.04C146.269 208.04 142.856 207.24 139.869 205.64C136.883 203.987 134.509 201.56 132.749 198.36C131.043 195.107 130.189 191.08 130.189 186.28C130.189 181.48 131.069 177.48 132.829 174.28C134.589 171.08 136.936 168.68 139.869 167.08C142.856 165.427 146.189 164.6 149.869 164.6C153.656 164.6 157.043 165.427 160.029 167.08C163.016 168.733 165.363 171.187 167.069 174.44C168.829 177.693 169.709 181.72 169.709 186.52C169.709 191.32 168.829 195.32 167.069 198.52C165.363 201.72 163.016 204.12 160.029 205.72C157.096 207.267 153.789 208.04 150.109 208.04ZM150.189 202.04C152.696 202.04 154.856 201.453 156.669 200.28C158.483 199.053 159.869 197.32 160.829 195.08C161.843 192.787 162.349 190.04 162.349 186.84C162.349 183.533 161.816 180.707 160.749 178.36C159.736 175.96 158.296 174.12 156.429 172.84C154.563 171.507 152.349 170.84 149.789 170.84C147.283 170.84 145.123 171.453 143.309 172.68C141.496 173.907 140.083 175.693 139.069 178.04C138.056 180.333 137.549 183.053 137.549 186.2C137.549 191.107 138.669 194.973 140.909 197.8C143.149 200.627 146.243 202.04 150.189 202.04ZM173.189 219.24C172.389 219.24 171.536 219.16 170.629 219C169.723 218.84 168.763 218.627 167.749 218.36L167.189 211.72C170.496 212.573 172.896 212.627 174.389 211.88C175.883 211.133 176.629 209.16 176.629 205.96V165.72H183.909V205.08C183.909 207.48 183.669 209.56 183.189 211.32C182.763 213.133 182.096 214.627 181.189 215.8C180.283 216.973 179.163 217.827 177.829 218.36C176.496 218.947 174.949 219.24 173.189 219.24ZM180.229 160.12C178.629 160.12 177.429 159.8 176.629 159.16C175.829 158.467 175.429 157.48 175.429 156.2C175.429 154.92 175.829 153.96 176.629 153.32C177.483 152.627 178.683 152.28 180.229 152.28C181.776 152.28 182.949 152.627 183.749 153.32C184.603 153.96 185.029 154.947 185.029 156.28C185.029 157.507 184.603 158.467 183.749 159.16C182.949 159.8 181.776 160.12 180.229 160.12ZM210.477 208.04C207.224 208.04 204.371 207.533 201.917 206.52C199.464 205.507 197.384 204.067 195.677 202.2C194.024 200.333 192.771 198.12 191.917 195.56C191.117 192.947 190.717 190.04 190.717 186.84C190.717 183.747 191.117 180.867 191.917 178.2C192.717 175.48 193.917 173.107 195.517 171.08C197.117 169.053 199.117 167.48 201.517 166.36C203.917 165.187 206.691 164.6 209.837 164.6C212.717 164.6 215.277 165.107 217.517 166.12C219.757 167.08 221.624 168.493 223.117 170.36C224.664 172.227 225.784 174.52 226.477 177.24C227.171 179.907 227.384 182.92 227.117 186.28L195.197 186.76V181.8L221.997 181.4L220.237 184.36C220.397 181.587 220.077 179.213 219.277 177.24C218.531 175.213 217.357 173.667 215.757 172.6C214.211 171.48 212.237 170.92 209.837 170.92C207.277 170.92 205.091 171.587 203.277 172.92C201.517 174.2 200.157 176.013 199.197 178.36C198.291 180.707 197.837 183.453 197.837 186.6C197.837 191.613 198.931 195.453 201.117 198.12C203.357 200.733 206.557 202.04 210.717 202.04C212.744 202.04 214.424 201.747 215.757 201.16C217.144 200.52 218.237 199.72 219.037 198.76C219.837 197.747 220.424 196.68 220.797 195.56C221.171 194.387 221.357 193.267 221.357 192.2L228.077 192.92C228.024 195.107 227.597 197.133 226.797 199C225.997 200.813 224.824 202.413 223.277 203.8C221.784 205.133 219.971 206.173 217.837 206.92C215.704 207.667 213.251 208.04 210.477 208.04ZM252.499 208.04C249.193 208.04 246.286 207.507 243.779 206.44C241.326 205.373 239.273 203.88 237.619 201.96C235.966 200.04 234.739 197.773 233.939 195.16C233.139 192.547 232.739 189.693 232.739 186.6C232.739 183.453 233.139 180.547 233.939 177.88C234.793 175.213 236.019 172.893 237.619 170.92C239.273 168.893 241.299 167.347 243.699 166.28C246.099 165.16 248.899 164.6 252.099 164.6C255.779 164.6 258.846 165.293 261.299 166.68C263.753 168.067 265.593 169.907 266.819 172.2C268.099 174.493 268.739 177 268.739 179.72L262.019 180.76C262.019 178.68 261.593 176.92 260.739 175.48C259.886 173.987 258.713 172.84 257.219 172.04C255.779 171.24 254.073 170.84 252.099 170.84C250.499 170.84 248.979 171.133 247.539 171.72C246.153 172.307 244.873 173.213 243.699 174.44C242.579 175.667 241.699 177.267 241.059 179.24C240.419 181.16 240.099 183.507 240.099 186.28C240.099 189.907 240.633 192.893 241.699 195.24C242.819 197.533 244.313 199.24 246.179 200.36C248.099 201.427 250.259 201.96 252.659 201.96C255.059 201.96 257.033 201.48 258.579 200.52C260.126 199.507 261.273 198.173 262.019 196.52C262.819 194.813 263.193 192.973 263.139 191L270.019 191.8C270.019 194.2 269.619 196.413 268.819 198.44C268.073 200.413 266.926 202.12 265.379 203.56C263.886 205 262.046 206.12 259.859 206.92C257.726 207.667 255.273 208.04 252.499 208.04ZM288.706 207.8C284.972 207.8 282.119 206.76 280.146 204.68C278.226 202.547 277.266 199.427 277.266 195.32V171.8H271.906V166.28H274.386C276.092 166.173 277.319 165.693 278.066 164.84C278.866 163.987 279.319 162.733 279.426 161.08L279.906 156.76H284.466V165.72H295.586V171.96H284.466V195C284.466 197.08 284.946 198.627 285.906 199.64C286.919 200.6 288.279 201.08 289.986 201.08C290.946 201.08 291.932 200.947 292.946 200.68C293.959 200.413 294.866 199.96 295.666 199.32V206.44C294.439 206.867 293.239 207.187 292.066 207.4C290.946 207.667 289.826 207.8 288.706 207.8ZM301.659 207V165.72H308.939V207H301.659ZM305.339 160.12C303.739 160.12 302.539 159.8 301.739 159.16C300.939 158.467 300.539 157.48 300.539 156.2C300.539 154.92 300.939 153.96 301.739 153.32C302.592 152.627 303.792 152.28 305.339 152.28C306.885 152.28 308.059 152.627 308.859 153.32C309.712 153.96 310.139 154.947 310.139 156.28C310.139 157.507 309.712 158.467 308.859 159.16C308.059 159.8 306.885 160.12 305.339 160.12ZM335.522 208.04C331.682 208.04 328.269 207.24 325.282 205.64C322.295 203.987 319.922 201.56 318.162 198.36C316.455 195.107 315.602 191.08 315.602 186.28C315.602 181.48 316.482 177.48 318.242 174.28C320.002 171.08 322.349 168.68 325.282 167.08C328.269 165.427 331.602 164.6 335.282 164.6C339.069 164.6 342.455 165.427 345.442 167.08C348.429 168.733 350.775 171.187 352.482 174.44C354.242 177.693 355.122 181.72 355.122 186.52C355.122 191.32 354.242 195.32 352.482 198.52C350.775 201.72 348.429 204.12 345.442 205.72C342.509 207.267 339.202 208.04 335.522 208.04ZM335.602 202.04C338.109 202.04 340.269 201.453 342.082 200.28C343.895 199.053 345.282 197.32 346.242 195.08C347.255 192.787 347.762 190.04 347.762 186.84C347.762 183.533 347.229 180.707 346.162 178.36C345.149 175.96 343.709 174.12 341.842 172.84C339.975 171.507 337.762 170.84 335.202 170.84C332.695 170.84 330.535 171.453 328.722 172.68C326.909 173.907 325.495 175.693 324.482 178.04C323.469 180.333 322.962 183.053 322.962 186.2C322.962 191.107 324.082 194.973 326.322 197.8C328.562 200.627 331.655 202.04 335.602 202.04ZM361.874 207V186.2L361.794 165.72H368.514L367.394 183.96H368.274C368.701 179.587 369.501 175.987 370.674 173.16C371.901 170.28 373.554 168.147 375.634 166.76C377.714 165.32 380.248 164.6 383.234 164.6C387.928 164.6 391.394 166.28 393.634 169.64C395.874 172.947 396.994 178.067 396.994 185V207H389.714V185.32C389.714 180.467 389.021 176.92 387.634 174.68C386.301 172.387 384.141 171.24 381.154 171.24C378.594 171.24 376.408 172.093 374.594 173.8C372.834 175.507 371.501 178.067 370.594 181.48C369.688 184.84 369.208 189.027 369.154 194.04V207H361.874ZM420.759 208.04C418.093 208.04 415.639 207.747 413.399 207.16C411.213 206.627 409.319 205.747 407.719 204.52C406.119 203.293 404.893 201.72 404.039 199.8C403.239 197.88 402.919 195.587 403.079 192.92L409.719 192.04C409.559 194.493 409.933 196.467 410.839 197.96C411.799 199.453 413.159 200.52 414.919 201.16C416.679 201.8 418.733 202.12 421.079 202.12C424.226 202.12 426.653 201.613 428.359 200.6C430.119 199.533 430.999 198.067 430.999 196.2C430.999 194.707 430.519 193.56 429.559 192.76C428.599 191.907 427.266 191.24 425.559 190.76C423.906 190.28 421.986 189.827 419.799 189.4C417.666 188.92 415.613 188.44 413.639 187.96C411.719 187.427 409.986 186.733 408.439 185.88C406.893 185.027 405.666 183.907 404.759 182.52C403.906 181.08 403.479 179.267 403.479 177.08C403.479 174.573 404.146 172.387 405.479 170.52C406.813 168.653 408.706 167.213 411.159 166.2C413.613 165.133 416.466 164.6 419.719 164.6C422.866 164.6 425.693 165.107 428.199 166.12C430.759 167.133 432.759 168.707 434.199 170.84C435.693 172.973 436.359 175.693 436.199 179L429.719 180.04C429.826 177.853 429.426 176.067 428.519 174.68C427.666 173.293 426.439 172.253 424.839 171.56C423.293 170.867 421.479 170.52 419.399 170.52C416.679 170.52 414.493 171.08 412.839 172.2C411.239 173.267 410.439 174.733 410.439 176.6C410.439 178.147 410.919 179.347 411.879 180.2C412.893 181.053 414.253 181.72 415.959 182.2C417.719 182.627 419.666 183.053 421.799 183.48C423.719 183.8 425.639 184.2 427.559 184.68C429.479 185.16 431.213 185.853 432.759 186.76C434.359 187.613 435.639 188.787 436.599 190.28C437.559 191.72 438.039 193.613 438.039 195.96C438.039 198.467 437.319 200.627 435.879 202.44C434.493 204.253 432.519 205.64 429.959 206.6C427.399 207.56 424.333 208.04 420.759 208.04Z" fill="white"/>
<path d="M1307.28 88.2812L1283.34 136.5L1280.28 134.875L1304.22 86.6875L1307.28 88.2812ZM1316.87 108.656C1316.87 111.677 1317.23 114.51 1317.96 117.156L1337.06 97C1336.06 95.125 1334.82 93.6875 1333.34 92.6875C1331.88 91.6875 1330.17 91.1875 1328.21 91.1875C1324.54 91.1875 1321.73 92.75 1319.77 95.875C1317.84 98.9792 1316.87 103.24 1316.87 108.656ZM1319.43 120.625C1321.49 124.292 1324.42 126.125 1328.21 126.125C1331.79 126.125 1334.58 124.573 1336.56 121.469C1338.53 118.344 1339.52 114.073 1339.52 108.656C1339.52 107.156 1339.43 105.74 1339.24 104.406C1339.06 103.052 1338.79 101.76 1338.46 100.531L1319.43 120.625ZM1312.59 108.656C1312.59 105.927 1312.88 103.292 1313.46 100.75C1314.04 98.2083 1314.95 95.9583 1316.18 94C1317.41 92.0417 1319.01 90.4792 1320.99 89.3125C1322.99 88.125 1325.4 87.5312 1328.21 87.5312C1331.02 87.5312 1333.42 88.125 1335.4 89.3125C1337.4 90.4792 1339.02 92.0417 1340.27 94C1341.52 95.9583 1342.43 98.2083 1342.99 100.75C1343.56 103.292 1343.84 105.927 1343.84 108.656C1343.84 111.385 1343.56 114.021 1342.99 116.562C1342.43 119.104 1341.53 121.344 1340.31 123.281C1339.08 125.219 1337.46 126.781 1335.46 127.969C1333.48 129.135 1331.07 129.719 1328.21 129.719C1325.36 129.719 1322.93 129.135 1320.93 127.969C1318.95 126.781 1317.34 125.219 1316.09 123.281C1314.86 121.344 1313.97 119.104 1313.43 116.562C1312.87 114.021 1312.59 111.385 1312.59 108.656ZM1376.99 92C1374.42 94.7708 1372.37 97.5 1370.83 100.188C1369.29 102.875 1368.1 105.688 1367.27 108.625C1366.43 111.542 1365.87 114.667 1365.58 118C1365.29 121.312 1365.12 124.979 1365.08 129H1360.58C1360.62 125.208 1360.82 121.635 1361.17 118.281C1361.55 114.927 1362.19 111.729 1363.11 108.688C1364.03 105.625 1365.28 102.708 1366.86 99.9375C1368.44 97.1667 1370.44 94.4792 1372.86 91.875H1353.42V99.875H1349.77V88.2188H1376.99V92Z" fill="white"/>
</svg>
